Jog05_grf.mot																		
version=1																		
nRows=56																		
nColumns 19																		
inDegrees=yes																		
endheader																		
time	calcn_r_ground_force_vx	calcn_r_ground_force_vy	calcn_r_ground_force_vz	calcn_r_ground_force_px	calcn_r_ground_force_py	calcn_r_ground_force_pz	calcn_r_ground_torque_x	calcn_r_ground_torque_y	calcn_r_ground_torque_z	calcn_l_ground_force_vx	calcn_l_ground_force_vy	calcn_l_ground_force_vz	calcn_l_ground_force_px	calcn_l_ground_force_py	calcn_l_ground_force_pz	calcn_l_ground_torque_x	calcn_l_ground_torque_y	calcn_l_ground_torque_z
1.304	-123.830952	1761.131933	-51.385338	0.78345	0	0.398755	-0.718212	10.119143	-0.291868	0	0	0	0	0	0	0	0	0
1.3045	-121.127051	1762.927661	-51.819038	0.783905	0	0.398825	-0.701732	10.102449	-0.293533	0	0	0	0	0	0	0	0	0
1.305	-118.414409	1764.558479	-52.269166	0.78436	0	0.398896	-0.685123	10.082946	-0.295228	0	0	0	0	0	0	0	0	0
1.3055	-115.690295	1766.027262	-52.733306	0.784814	0	0.398967	-0.668381	10.060779	-0.296944	0	0	0	0	0	0	0	0	0
1.306	-112.952183	1767.337091	-53.208891	0.785269	0	0.399039	-0.651505	10.036115	-0.298669	0	0	0	0	0	0	0	0	0
1.3065	-110.197798	1768.491277	-53.693252	0.785722	0	0.399112	-0.634497	10.009135	-0.300394	0	0	0	0	0	0	0	0	0
1.307	-107.42516	1769.493371	-54.183668	0.786175	0	0.399184	-0.617359	9.980031	-0.302108	0	0	0	0	0	0	0	0	0
1.3075	-104.632645	1770.347136	-54.677421	0.786626	0	0.399257	-0.600096	9.949003	-0.3038	0	0	0	0	0	0	0	0	0
1.308	-101.819021	1771.056497	-55.171831	0.787076	0	0.399329	-0.582714	9.916252	-0.305462	0	0	0	0	0	0	0	0	0
1.3085	-98.983462	1771.625491	-55.664275	0.787525	0	0.399402	-0.565223	9.881988	-0.307085	0	0	0	0	0	0	0	0	0
1.309	-96.125525	1772.058272	-56.152209	0.787972	0	0.399474	-0.547634	9.846421	-0.308659	0	0	0	0	0	0	0	0	0
1.3095	-93.245112	1772.359128	-56.63318	0.788417	0	0.399546	-0.529958	9.80976	-0.310178	0	0	0	0	0	0	0	0	0
1.31	-90.342453	1772.532478	-57.104861	0.78886	0	0.399617	-0.512208	9.772201	-0.311633	0	0	0	0	0	0	0	0	0
1.3105	-87.418088	1772.582871	-57.565082	0.789301	0	0.399687	-0.494397	9.733921	-0.313017	0	0	0	0	0	0	0	0	0
1.311	-84.472843	1772.514933	-58.011842	0.789739	0	0.399756	-0.476537	9.695074	-0.314324	0	0	0	0	0	0	0	0	0
1.3115	-81.507786	1772.333263	-58.44329	0.790175	0	0.399825	-0.45864	9.6558	-0.315547	0	0	0	0	0	0	0	0	0
1.312	-78.524168	1772.042355	-58.857691	0.790607	0	0.399892	-0.44072	9.616237	-0.31668	0	0	0	0	0	0	0	0	0
1.3125	-75.523365	1771.646557	-59.253418	0.791036	0	0.399958	-0.422789	9.576523	-0.317718	0	0	0	0	0	0	0	0	0
1.313	-72.506838	1771.150072	-59.628967	0.791461	0	0.400023	-0.404861	9.536794	-0.318657	0	0	0	0	0	0	0	0	0
1.3135	-69.476109	1770.556952	-59.982978	0.791882	0	0.400086	-0.386946	9.497175	-0.319492	0	0	0	0	0	0	0	0	0
1.314	-66.432735	1769.871066	-60.314244	0.792299	0	0.400148	-0.369058	9.457786	-0.320222	0	0	0	0	0	0	0	0	0
1.3145	-63.378277	1769.096076	-60.621709	0.792712	0	0.400208	-0.351207	9.418739	-0.320843	0	0	0	0	0	0	0	0	0
1.315	-60.314248	1768.235405	-60.904451	0.79312	0	0.400267	-0.333403	9.38014	-0.321353	0	0	0	0	0	0	0	0	0
1.3155	-57.242083	1767.29223	-61.161673	0.793523	0	0.400324	-0.315654	9.342093	-0.321752	0	0	0	0	0	0	0	0	0
1.316	-54.163105	1766.269515	-61.392709	0.793921	0	0.400379	-0.297969	9.30469	-0.322039	0	0	0	0	0	0	0	0	0
1.3165	-51.078506	1765.170036	-61.597033	0.794313	0	0.400432	-0.280353	9.268006	-0.322213	0	0	0	0	0	0	0	0	0
1.317	-47.989345	1763.996355	-61.774256	0.7947	0	0.400483	-0.262811	9.232096	-0.322274	0	0	0	0	0	0	0	0	0
1.3175	-44.89655	1762.750721	-61.924095	0.795081	0	0.400532	-0.245344	9.197009	-0.322221	0	0	0	0	0	0	0	0	0
1.318	-41.800897	1761.434972	-62.046331	0.795455	0	0.400579	-0.227956	9.162794	-0.322056	0	0	0	0	0	0	0	0	0
1.3185	-38.702984	1760.050538	-62.140794	0.795824	0	0.400624	-0.210646	9.129507	-0.321779	0	0	0	0	0	0	0	0	0
1.319	-35.603207	1758.598537	-62.207375	0.796186	0	0.400667	-0.193414	9.097197	-0.321391	0	0	0	0	0	0	0	0	0
1.3195	-32.501765	1757.079842	-62.24604	0.796542	0	0.400708	-0.176256	9.065905	-0.320894	0	0	0	0	0	0	0	0	0
1.32	-29.398666	1755.495109	-62.256833	0.796891	0	0.400746	-0.15917	9.035658	-0.320288	0	0	0	0	0	0	0	0	0
1.3205	-26.293726	1753.84475	-62.239854	0.797233	0	0.400782	-0.142148	9.006467	-0.319576	0	0	0	0	0	0	0	0	0
1.321	-23.186588	1752.128862	-62.195218	0.797569	0	0.400816	-0.125186	8.978342	-0.318757	0	0	0	0	0	0	0	0	0
1.3215	-20.076722	1750.347201	-62.12304	0.797898	0	0.400848	-0.108274	8.951297	-0.317834	0	0	0	0	0	0	0	0	0
1.322	-16.963411	1748.499249	-62.02343	0.79822	0	0.400877	-0.091403	8.925346	-0.316807	0	0	0	0	0	0	0	0	0
1.3225	-13.845757	1746.584288	-61.896505	0.798535	0	0.400904	-0.074564	8.900493	-0.315679	0	0	0	0	0	0	0	0	0
1.323	-10.722718	1744.601445	-61.742397	0.798843	0	0.400928	-0.057746	8.876728	-0.314448	0	0	0	0	0	0	0	0	0
1.3235	-7.593143	1742.549665	-61.561234	0.799143	0	0.400951	-0.040936	8.854034	-0.313117	0	0	0	0	0	0	0	0	0
1.324	-4.455827	1740.427647	-61.353123	0.799437	0	0.40097	-0.024121	8.832402	-0.311685	0	0	0	0	0	0	0	0	0
1.3245	-1.309548	1738.23382	-61.118133	0.799724	0	0.400988	-0.007291	8.811838	-0.310153	0	0	0	0	0	0	0	0	0
1.325	1.846914	1735.966405	-60.856312	0.800003	0	0.401002	0.009569	8.792354	-0.308522	0	0	0	0	0	0	0	0	0
1.3255	5.014749	1733.623507	-60.567699	0.800276	0	0.401015	0.02647	8.773964	-0.306794	0	0	0	0	0	0	0	0	0
1.326	8.195092	1731.203192	-60.252347	0.800541	0	0.401025	0.043424	8.756671	-0.304969	0	0	0	0	0	0	0	0	0
1.3265	11.38898	1728.703501	-59.910342	0.8008	0	0.401033	0.060443	8.740467	-0.303048	0	0	0	0	0	0	0	0	0
1.327	14.597307	1726.122401	-59.541802	0.801052	0	0.401038	0.077536	8.725331	-0.301031	0	0	0	0	0	0	0	0	0
1.3275	17.820807	1723.457733	-59.146862	0.801297	0	0.401041	0.094715	8.711247	-0.298918	0	0	0	0	0	0	0	0	0
1.328	21.060052	1720.707204	-58.725668	0.801535	0	0.401041	0.111988	8.698198	-0.296711	0	0	0	0	0	0	0	0	0
1.3285	24.315444	1717.86845	-58.278384	0.801767	0	0.401039	0.129362	8.686168	-0.294409	0	0	0	0	0	0	0	0	0
1.329	27.587206	1714.939153	-57.80521	0.801992	0	0.401035	0.146844	8.675132	-0.292014	0	0	0	0	0	0	0	0	0
1.3295	30.875355	1711.917061	-57.306406	0.802211	0	0.401029	0.164439	8.665045	-0.289525	0	0	0	0	0	0	0	0	0
1.33	34.179669	1708.799943	-56.782295	0.802424	0	0.40102	0.18215	8.655854	-0.286943	0	0	0	0	0	0	0	0	0
1.3305	37.499672	1705.585524	-56.233252	0.80263	0	0.401008	0.19998	8.647495	-0.284268	0	0	0	0	0	0	0	0	0
1.331	40.834637	1702.271421	-55.659699	0.802831	0	0.400995	0.217927	8.639904	-0.2815	0	0	0	0	0	0	0	0	0
1.3315	44.1836	1698.855131	-55.062105	0.803026	0	0.400979	0.235991	8.63301	-0.27864	0	0	0	0	0	0	0	0	0
